<mxfile host="app.diagrams.net" modified="2023-08-23T11:55:31.334Z" agent="Mozilla/5.0 (X11; Ubuntu; Linux x86_64; rv:109.0) Gecko/20100101 Firefox/116.0" etag="Oj8Y90M5isBNyDKnZPpc" version="21.6.8" type="device">
  <diagram name="Seite-1" id="LmcvWImrs5uPe_n25892">
    <mxGraphModel dx="779" dy="1623" grid="1" gridSize="10" guides="1" tooltips="1" connect="1" arrows="1" fold="1" page="1" pageScale="1" pageWidth="827" pageHeight="1169" math="0" shadow="0">
      <root>
        <mxCell id="0" />
        <mxCell id="1" parent="0" />
        <mxCell id="fK3oxpIVK3-_zWHMPe-f-1" value="" style="whiteSpace=wrap;html=1;aspect=fixed;direction=west;rotation=90;" parent="1" vertex="1">
          <mxGeometry x="120" y="120" width="40" height="40" as="geometry" />
        </mxCell>
        <mxCell id="fK3oxpIVK3-_zWHMPe-f-4" value="" style="whiteSpace=wrap;html=1;aspect=fixed;direction=west;rotation=90;" parent="1" vertex="1">
          <mxGeometry x="120" y="160" width="40" height="40" as="geometry" />
        </mxCell>
        <mxCell id="fK3oxpIVK3-_zWHMPe-f-5" value="" style="whiteSpace=wrap;html=1;aspect=fixed;direction=west;rotation=90;" parent="1" vertex="1">
          <mxGeometry x="120" y="200" width="40" height="40" as="geometry" />
        </mxCell>
        <mxCell id="fK3oxpIVK3-_zWHMPe-f-6" value="" style="whiteSpace=wrap;html=1;aspect=fixed;direction=west;rotation=90;" parent="1" vertex="1">
          <mxGeometry x="200" y="240" width="40" height="40" as="geometry" />
        </mxCell>
        <mxCell id="fK3oxpIVK3-_zWHMPe-f-7" value="" style="whiteSpace=wrap;html=1;aspect=fixed;direction=west;rotation=90;" parent="1" vertex="1">
          <mxGeometry x="160" y="120" width="40" height="40" as="geometry" />
        </mxCell>
        <mxCell id="fK3oxpIVK3-_zWHMPe-f-8" value="" style="whiteSpace=wrap;html=1;aspect=fixed;direction=west;rotation=90;" parent="1" vertex="1">
          <mxGeometry x="160" y="160" width="40" height="40" as="geometry" />
        </mxCell>
        <mxCell id="fK3oxpIVK3-_zWHMPe-f-9" value="" style="whiteSpace=wrap;html=1;aspect=fixed;direction=west;rotation=90;" parent="1" vertex="1">
          <mxGeometry x="160" y="200" width="40" height="40" as="geometry" />
        </mxCell>
        <mxCell id="fK3oxpIVK3-_zWHMPe-f-10" value="" style="whiteSpace=wrap;html=1;aspect=fixed;direction=west;rotation=90;" parent="1" vertex="1">
          <mxGeometry x="120" y="240" width="40" height="40" as="geometry" />
        </mxCell>
        <mxCell id="fK3oxpIVK3-_zWHMPe-f-11" value="" style="whiteSpace=wrap;html=1;aspect=fixed;direction=west;rotation=90;" parent="1" vertex="1">
          <mxGeometry x="200" y="120" width="40" height="40" as="geometry" />
        </mxCell>
        <mxCell id="fK3oxpIVK3-_zWHMPe-f-12" value="" style="whiteSpace=wrap;html=1;aspect=fixed;direction=west;rotation=90;" parent="1" vertex="1">
          <mxGeometry x="200" y="160" width="40" height="40" as="geometry" />
        </mxCell>
        <mxCell id="fK3oxpIVK3-_zWHMPe-f-13" value="" style="whiteSpace=wrap;html=1;aspect=fixed;direction=west;rotation=90;" parent="1" vertex="1">
          <mxGeometry x="200" y="200" width="40" height="40" as="geometry" />
        </mxCell>
        <mxCell id="fK3oxpIVK3-_zWHMPe-f-14" value="" style="whiteSpace=wrap;html=1;aspect=fixed;direction=west;rotation=90;" parent="1" vertex="1">
          <mxGeometry x="160" y="240" width="40" height="40" as="geometry" />
        </mxCell>
        <mxCell id="XsmSPPfpp2uaWmYMKq4W-1" value="" style="whiteSpace=wrap;html=1;aspect=fixed;direction=west;rotation=90;" vertex="1" parent="1">
          <mxGeometry x="280" y="-40" width="40" height="40" as="geometry" />
        </mxCell>
        <mxCell id="XsmSPPfpp2uaWmYMKq4W-2" value="" style="whiteSpace=wrap;html=1;aspect=fixed;direction=west;rotation=90;" vertex="1" parent="1">
          <mxGeometry x="280" width="40" height="40" as="geometry" />
        </mxCell>
        <mxCell id="XsmSPPfpp2uaWmYMKq4W-3" value="" style="whiteSpace=wrap;html=1;aspect=fixed;direction=west;rotation=90;" vertex="1" parent="1">
          <mxGeometry x="280" y="40" width="40" height="40" as="geometry" />
        </mxCell>
        <mxCell id="XsmSPPfpp2uaWmYMKq4W-5" value="" style="whiteSpace=wrap;html=1;aspect=fixed;direction=west;rotation=90;" vertex="1" parent="1">
          <mxGeometry x="320" y="-40" width="40" height="40" as="geometry" />
        </mxCell>
        <mxCell id="XsmSPPfpp2uaWmYMKq4W-6" value="" style="whiteSpace=wrap;html=1;aspect=fixed;direction=west;rotation=90;" vertex="1" parent="1">
          <mxGeometry x="320" width="40" height="40" as="geometry" />
        </mxCell>
        <mxCell id="XsmSPPfpp2uaWmYMKq4W-7" value="" style="whiteSpace=wrap;html=1;aspect=fixed;direction=west;rotation=90;" vertex="1" parent="1">
          <mxGeometry x="320" y="40" width="40" height="40" as="geometry" />
        </mxCell>
        <mxCell id="XsmSPPfpp2uaWmYMKq4W-9" value="" style="whiteSpace=wrap;html=1;aspect=fixed;direction=west;rotation=90;" vertex="1" parent="1">
          <mxGeometry x="360" y="-40" width="40" height="40" as="geometry" />
        </mxCell>
        <mxCell id="XsmSPPfpp2uaWmYMKq4W-10" value="" style="whiteSpace=wrap;html=1;aspect=fixed;direction=west;rotation=90;" vertex="1" parent="1">
          <mxGeometry x="360" width="40" height="40" as="geometry" />
        </mxCell>
        <mxCell id="XsmSPPfpp2uaWmYMKq4W-11" value="" style="whiteSpace=wrap;html=1;aspect=fixed;direction=west;rotation=90;" vertex="1" parent="1">
          <mxGeometry x="360" y="40" width="40" height="40" as="geometry" />
        </mxCell>
        <mxCell id="XsmSPPfpp2uaWmYMKq4W-14" value="" style="endArrow=classic;html=1;rounded=0;" edge="1" parent="1">
          <mxGeometry width="50" height="50" relative="1" as="geometry">
            <mxPoint x="80" y="130" as="sourcePoint" />
            <mxPoint x="80" y="270" as="targetPoint" />
          </mxGeometry>
        </mxCell>
        <mxCell id="XsmSPPfpp2uaWmYMKq4W-15" value="" style="endArrow=none;html=1;rounded=0;fillColor=#f8cecc;strokeColor=#b85450;" edge="1" parent="1">
          <mxGeometry width="50" height="50" relative="1" as="geometry">
            <mxPoint x="130" y="139.71" as="sourcePoint" />
            <mxPoint x="230" y="139.71" as="targetPoint" />
          </mxGeometry>
        </mxCell>
        <mxCell id="XsmSPPfpp2uaWmYMKq4W-16" value="" style="endArrow=none;html=1;rounded=0;fillColor=#f8cecc;strokeColor=#b85450;" edge="1" parent="1">
          <mxGeometry width="50" height="50" relative="1" as="geometry">
            <mxPoint x="290" y="-20.289999999999992" as="sourcePoint" />
            <mxPoint x="390" y="-20.289999999999992" as="targetPoint" />
          </mxGeometry>
        </mxCell>
        <mxCell id="XsmSPPfpp2uaWmYMKq4W-18" value="" style="whiteSpace=wrap;html=1;aspect=fixed;direction=west;rotation=90;" vertex="1" parent="1">
          <mxGeometry x="280" y="120" width="40" height="40" as="geometry" />
        </mxCell>
        <mxCell id="XsmSPPfpp2uaWmYMKq4W-22" value="" style="whiteSpace=wrap;html=1;aspect=fixed;direction=west;rotation=90;" vertex="1" parent="1">
          <mxGeometry x="320" y="120" width="40" height="40" as="geometry" />
        </mxCell>
        <mxCell id="XsmSPPfpp2uaWmYMKq4W-26" value="" style="whiteSpace=wrap;html=1;aspect=fixed;direction=west;rotation=90;" vertex="1" parent="1">
          <mxGeometry x="360" y="120" width="40" height="40" as="geometry" />
        </mxCell>
        <mxCell id="XsmSPPfpp2uaWmYMKq4W-30" value="" style="endArrow=none;html=1;rounded=0;fillColor=#f8cecc;strokeColor=#b85450;" edge="1" parent="1">
          <mxGeometry width="50" height="50" relative="1" as="geometry">
            <mxPoint x="290" y="139.71" as="sourcePoint" />
            <mxPoint x="390" y="139.71" as="targetPoint" />
          </mxGeometry>
        </mxCell>
        <mxCell id="XsmSPPfpp2uaWmYMKq4W-31" value="i" style="text;html=1;align=center;verticalAlign=middle;resizable=0;points=[];autosize=1;strokeColor=none;fillColor=none;" vertex="1" parent="1">
          <mxGeometry x="40" y="178" width="30" height="30" as="geometry" />
        </mxCell>
        <mxCell id="XsmSPPfpp2uaWmYMKq4W-32" value="" style="endArrow=classic;html=1;rounded=0;" edge="1" parent="1">
          <mxGeometry width="50" height="50" relative="1" as="geometry">
            <mxPoint x="260" y="-30" as="sourcePoint" />
            <mxPoint x="260" y="70" as="targetPoint" />
          </mxGeometry>
        </mxCell>
        <mxCell id="XsmSPPfpp2uaWmYMKq4W-33" value="j" style="text;html=1;align=center;verticalAlign=middle;resizable=0;points=[];autosize=1;strokeColor=none;fillColor=none;" vertex="1" parent="1">
          <mxGeometry x="220" width="30" height="30" as="geometry" />
        </mxCell>
        <mxCell id="XsmSPPfpp2uaWmYMKq4W-34" value="" style="endArrow=classic;html=1;rounded=0;" edge="1" parent="1">
          <mxGeometry width="50" height="50" relative="1" as="geometry">
            <mxPoint x="130" y="100" as="sourcePoint" />
            <mxPoint x="230" y="100" as="targetPoint" />
          </mxGeometry>
        </mxCell>
        <mxCell id="XsmSPPfpp2uaWmYMKq4W-35" value="k" style="text;html=1;align=center;verticalAlign=middle;resizable=0;points=[];autosize=1;strokeColor=none;fillColor=none;" vertex="1" parent="1">
          <mxGeometry x="160" y="60" width="30" height="30" as="geometry" />
        </mxCell>
        <mxCell id="XsmSPPfpp2uaWmYMKq4W-36" value="" style="endArrow=classic;html=1;rounded=0;" edge="1" parent="1">
          <mxGeometry width="50" height="50" relative="1" as="geometry">
            <mxPoint x="290" y="-50" as="sourcePoint" />
            <mxPoint x="390" y="-50" as="targetPoint" />
          </mxGeometry>
        </mxCell>
        <mxCell id="XsmSPPfpp2uaWmYMKq4W-37" value="k" style="text;html=1;align=center;verticalAlign=middle;resizable=0;points=[];autosize=1;strokeColor=none;fillColor=none;" vertex="1" parent="1">
          <mxGeometry x="320" y="-90" width="30" height="30" as="geometry" />
        </mxCell>
        <mxCell id="XsmSPPfpp2uaWmYMKq4W-38" value="" style="whiteSpace=wrap;html=1;aspect=fixed;direction=west;rotation=90;dashed=1;dashPattern=12 12;" vertex="1" parent="1">
          <mxGeometry x="280" y="160" width="40" height="40" as="geometry" />
        </mxCell>
        <mxCell id="XsmSPPfpp2uaWmYMKq4W-39" value="" style="whiteSpace=wrap;html=1;aspect=fixed;direction=west;rotation=90;dashed=1;dashPattern=12 12;" vertex="1" parent="1">
          <mxGeometry x="280" y="200" width="40" height="40" as="geometry" />
        </mxCell>
        <mxCell id="XsmSPPfpp2uaWmYMKq4W-40" value="" style="whiteSpace=wrap;html=1;aspect=fixed;direction=west;rotation=90;dashed=1;dashPattern=12 12;" vertex="1" parent="1">
          <mxGeometry x="360" y="240" width="40" height="40" as="geometry" />
        </mxCell>
        <mxCell id="XsmSPPfpp2uaWmYMKq4W-41" value="" style="whiteSpace=wrap;html=1;aspect=fixed;direction=west;rotation=90;dashed=1;dashPattern=12 12;" vertex="1" parent="1">
          <mxGeometry x="320" y="160" width="40" height="40" as="geometry" />
        </mxCell>
        <mxCell id="XsmSPPfpp2uaWmYMKq4W-42" value="" style="whiteSpace=wrap;html=1;aspect=fixed;direction=west;rotation=90;dashed=1;dashPattern=12 12;" vertex="1" parent="1">
          <mxGeometry x="320" y="200" width="40" height="40" as="geometry" />
        </mxCell>
        <mxCell id="XsmSPPfpp2uaWmYMKq4W-43" value="" style="whiteSpace=wrap;html=1;aspect=fixed;direction=west;rotation=90;dashed=1;dashPattern=12 12;" vertex="1" parent="1">
          <mxGeometry x="280" y="240" width="40" height="40" as="geometry" />
        </mxCell>
        <mxCell id="XsmSPPfpp2uaWmYMKq4W-44" value="" style="whiteSpace=wrap;html=1;aspect=fixed;direction=west;rotation=90;dashed=1;dashPattern=12 12;" vertex="1" parent="1">
          <mxGeometry x="360" y="160" width="40" height="40" as="geometry" />
        </mxCell>
        <mxCell id="XsmSPPfpp2uaWmYMKq4W-45" value="" style="whiteSpace=wrap;html=1;aspect=fixed;direction=west;rotation=90;dashed=1;dashPattern=12 12;" vertex="1" parent="1">
          <mxGeometry x="360" y="200" width="40" height="40" as="geometry" />
        </mxCell>
        <mxCell id="XsmSPPfpp2uaWmYMKq4W-46" value="" style="whiteSpace=wrap;html=1;aspect=fixed;direction=west;rotation=90;dashed=1;dashPattern=12 12;" vertex="1" parent="1">
          <mxGeometry x="320" y="240" width="40" height="40" as="geometry" />
        </mxCell>
      </root>
    </mxGraphModel>
  </diagram>
</mxfile>
